<?xml version="1.0" standalone="no"?>
<!DOCTYPE svg PUBLIC "-//W3C//DTD SVG 20010904//EN"
 "http://www.w3.org/TR/2001/REC-SVG-20010904/DTD/svg10.dtd">
<svg version="1.0" xmlns="http://www.w3.org/2000/svg"
 width="512.000000pt" height="512.000000pt" viewBox="0 0 512.000000 512.000000"
 preserveAspectRatio="xMidYMid meet">

<g transform="translate(0.000000,512.000000) scale(0.100000,-0.100000)"
fill="#000000" stroke="none">
<path d="M1035 3461 c-97 -45 -141 -159 -100 -259 11 -26 238 -260 753 -776
775 -777 786 -786 872 -786 86 0 97 10 866 781 403 404 739 748 747 764 42 83
28 166 -37 231 -65 65 -148 79 -231 37 -16 -8 -326 -310 -688 -671 l-657 -657
-663 662 c-461 461 -673 667 -699 678 -50 20 -114 19 -163 -4z"/>
</g>
</svg>
